# xmcd
#
# Track frame offsets: 
#        150
#        14502
#        28523
#        43138
#        57835
#        74902
#        85848
#        97975
#        114400
#        131659
#        153197
#        176274
#        195486
#        213843
#        227721
#        241498
#        258335
#        277499
#        289169
#        306791
#
# Disc length: 4293 seconds
#
# Revision: 1
# Processed by: cddbd v1.5.2PL0 Copyright (c) Steve Scherf et al.
# Submitted via: ExactAudioCopy v1.0b4
#
DISCID=1f10c314
DTITLE=PHOLHAS - 20 Super Sucessos
DYEAR=2007
DGENRE=Blues
TTITLE0=She Made Me Cry
TTITLE1=I Starded A Joke
TTITLE2=My Mistake
TTITLE3=Listen To The Music
TTITLE4=Forever
TTITLE5=Have You Ever Seen The Rain?
TTITLE6=If
TTITLE7=Skyline Pigeon
TTITLE8=Reflections Of My Life
TTITLE9=All By My Self
TTITLE10=Smoke Gets In Your Eyes
TTITLE11=A Whiter Shade Of Pale
TTITLE12=Proud Mary
TTITLE13=Venus
TTITLE14=In My Way
TTITLE15=Bus Stop
TTITLE16=Unchained Melody
TTITLE17=Blue Suede Shoes
TTITLE18=Its Too Late
TTITLE19=Stormy
EXTD=Inserido no FREERIP por Donizete Junior\nEm 01/05/2007\nDistribui
EXTD=do pela Polidisc Manaus Amazonas \nBrasil
EXTT0=
EXTT1=
EXTT2=
EXTT3=
EXTT4=
EXTT5=
EXTT6=
EXTT7=
EXTT8=
EXTT9=
EXTT10=
EXTT11=
EXTT12=
EXTT13=
EXTT14=
EXTT15=
EXTT16=
EXTT17=
EXTT18=
EXTT19=
PLAYORDER=
